<svg xmlns="http://www.w3.org/2000/svg" width="83" height="72" viewBox="0 0 83 72"><g><g><g><g><path fill="#7a9d2c" d="M68.065 1.394c7.067 0 12.817 5.75 12.817 12.817v49.304a6.813 6.813 0 0 1-6.806 6.805H8.2a6.813 6.813 0 0 1-6.805-6.805V14.21c0-7.067 5.75-12.817 12.817-12.817zm6.011 70.32c4.522 0 8.2-3.678 8.2-8.2V14.212C82.276 6.375 75.901 0 68.065 0H14.212C6.375 0 0 6.375 0 14.21v49.304c0 4.521 3.678 8.2 8.2 8.2z"/></g></g><g><path fill="#90b928" d="M44.426 49.056c-.301-.492-.368-.769-.705-1.019-.337-.253-.663-.931-.723-1.929-.024-.38-.021-3.667-.003-4.053.295-.286.268-.687.262-1.118-.006-.298.268-.636.373-.916a.874.874 0 0 0 .018-.555.874.874 0 0 0 .317-.795c.018-.01.033-.024.048-.036a.771.771 0 0 0 .754-.175.88.88 0 0 0 1.196-.485c.44.015.835-.133.865-.648.003-.024 0-.051 0-.075.163-.07.307-.166.425-.299.205-.235.208-.494.108-.735.021-.036.04-.072.058-.112.238-.277.268-.608.168-.973.277-.12.528-.326.642-.582.1-.214.073-.398-.027-.545.383-.35.521-.89.226-1.317.166-.211.283-.473.386-.696.114-.26.274-.61.262-.92.398-.376.62-.967.612-1.527a.634.634 0 0 0 .193-.109c.117-.108.21-.265.204-.428-.002-.045.004-.075.004-.09.048-.006.12-.003.144-.009.296-.115.425-.356.45-.63.273-.087.557-.244.765-.452.081.03.178.063.301.096.491.14.925.278 1.317.25.389-.026.606-.048.783.076.178.126.263.364.715.41.449.048.527-.028.68-.142.154-.114.17-.374.17-.374s.292-.024.446-.232c.15-.204.072-.316.072-.316s.382-.43-.003-1.034c-.383-.602-.865-1.127-1.386-1.766l-.335-.398c0-.018-.003-.032-.006-.05.229-.284.081-.679-.199-.97a.794.794 0 0 0-.093-.757c-.148-.205-.371-.287-.61-.296a.924.924 0 0 0-.994-.747 1.251 1.251 0 0 0-.28-.205c.012-.081.024-.166.034-.25.08-.937-.097-1.405-.63-.916-.374.34-.745.557-.962.898a3.179 3.179 0 0 0-.19-.564c-.388-.861-.774-1.199-1.006-.533-.232.666-.597 1.103-.316 1.75 0 .004.002.004.002.007-.006.009-.012.015-.015.024-.235.027-.437.184-.593.452-.036.06-.085.193-.16.223-.096.04-.28-.018-.383-.021-.304-.018-.533.184-.666.422a.197.197 0 0 0-.02.13c-.236.204-.477.49-.429.774-.247-.055-.482.045-.768.177a.247.247 0 0 0-.139.208.778.778 0 0 1-.26.323c-.126.09-.237.18-.336.28-.34-.208-.796-.084-1.133.214-.245-.168-.53-.205-.856-.012-.193.115-.305.278-.555.241-.307-.045-.612-.187-.925-.1a.577.577 0 0 0-.26.188l-.063.081a.783.783 0 0 0-.28-.108c-.322-.12-.729-.148-.988-.17-.495-.035-1.124-.041-1.6.176-.401-.266-.926-.181-1.396-.073-.301.07-.473.085-.777.018-.1-.02-.2-.03-.293-.024a.345.345 0 0 0-.334-.1 1.276 1.276 0 0 1-.323.034 1.216 1.216 0 0 0-.295-.051h-.021c-.04-.01-.078-.021-.12-.03a1.528 1.528 0 0 0-.856.02c-.374-.207-.931-.117-1.33-.075-.33.037-.635-.033-.96-.084-.374-.057-.694.117-1.037.229-.015 0-.148-.094-.19-.118a.551.551 0 0 0-.398-.039c-.126.037-.25.118-.367.175-.118.057-.284.033-.413.042-.136.01-.28.021-.428.042-.163-.132-.35-.226-.537-.202a.77.77 0 0 0-.518.263c-.133-.184-.331-.317-.588-.223-.16.057-.295.15-.449.214-.141.06-.434-.133-.633-.118-.238.018-.442.19-.62.326-.217.171-.35.147-.618.13-.419-.03-.787.159-.907.536-.389-.094-.742.02-.898.364-.47.048-.85.247-1.019.624-.464-.066-.795.244-.946.666a.697.697 0 0 0-.166.35c-.443.16-.575.636-.482 1.118-.033.042-.06.084-.087.126a2.58 2.58 0 0 0-.184.347c-.266.175-.335.524-.437.895-.085.304-.003.494.223.729.054.057.12.112.184.163.002.018.009.033.012.051a.174.174 0 0 0-.058.021 1.14 1.14 0 0 0-.37.398.3.3 0 0 0-.012.28c0 .006 0 .01.003.018.006.079.006.157.009.235.003.085 0 .17 0 .253-.003.03-.012.073-.012.09a.249.249 0 0 0-.006.218c.084.184.196.301.358.43.054.043-.015.305-.012.378.015.33.302.71.573.979-.124.419.178.741.392 1.124-.196.274-.248.654-.28.967-.022.19-.043.398-.046.606-.081.169-.16.338-.244.503-.042.085-.1.19-.154.305l-.057.048c-.364.34-.389.988-.22 1.724.169.738.07 5.394.148 6.449.08 1.039-.016 2.73-.032 3.038h2.201c-.008-.035-.01-.069-.027-.107-.123-.313-.316-.77-.479-1.045-.162-.274-.15-4.653-.214-5.87-.057-1.116.241-1.917.292-2.046.112.295.272.617.392 1.015.292.956.473 5.126.546 5.81.072.681.193.862.43.931.236.07.51.085.591.489.024.119.05.725.087.823h1.657c-.068-.25-.383-1.114-.436-1.257-.063-.166-.184-.44-.383-.603-.199-.163-.229-.567-.352-.934-.09-.271-.298-4.102-.473-5.012.075-.25.108-.521.136-.747.036-.275-.01-.552-.019-.826-.006-.13.112-.15.217-.214.142-.087.223-.223.302-.365.057-.099.102-.207.15-.313a.999.999 0 0 0 .13-.229c.114-.123.304-.187.455-.247a2.45 2.45 0 0 0 .732-.464 2.02 2.02 0 0 0 .434-.57c.292.193.744.214.983-.063l.027.03c.265.28.597.205.865.015.063.172.138.335.292.434.22.145.449.054.65-.087.311.325.848.455 1.303.47.196.003.44-.024.672-.093.033.018.07.032.117.042a.875.875 0 0 0 .32.012c.244.141.51.223.771.156a.552.552 0 0 0 .404.323c.25.06.482-.051.663-.211.434.193 1.073.084 1.495-.196.033-.006.066-.01.1-.015.3.18.69.13 1.003-.081l.018-.004a.77.77 0 0 0 .684.052c.111.117.265.19.482.199.217.009.425-.097.594-.245a.75.75 0 0 0 .494.121c.084.202.178.395.259.57.296.632.196 1.47.66 2.025-.114.26-.12.518.054.762 0 .706-.015 4.783-.07 5.184-.068.5-.21 1.299.031 1.57.214.24.3.67.386.811h2.058c-.128-.354-.233-.877-.452-1.037-.337-.253-.663-.929-.723-1.926-.024-.419-.018-3.749 0-4.168.476-.358.62-1.172.696-1.681.036-.26.081-.633.024-.962a.506.506 0 0 0 .07-.039c-.016.377.156.784.165 1.248.01.479 0 5.099-.066 5.6-.07.502-.211 1.298.03 1.572.241.271.32.286.419.35.089.056.134.749.16 1.043h2.644a1.582 1.582 0 0 1-.388-.248c-.002-.084-.044-.199-.138-.352z"/></g><g><path fill="#90b928" d="M50.411 48.059c.064-.314-.313-.516-.455-.236-.138.284-.687.112-.576-.25.11-.358-.039-4.072-.102-4.493-.06-.422-.109-1.893-.31-2.688-.206-.799-.392-.75-.392-1.019 0-.13-.03-.419-.097-.75-.063-.323-.518-.347-.609-.028-.15.525-.325 1.143-.466 1.625-.266.904-1.001 2.438-1.08 4.58-.078 2.14.516 2.845.624 3.11.112.265 1.284 1.128 1.393 1.594a.463.463 0 0 1 .01.152h3.04c-.363-.037-.796-.301-1.028-.534-.25-.25-.015-.75.048-1.063z"/></g><g><path fill="#90b928" d="M10.412 28.138c-.106.877.157 1.682.18 2.414.025.693-.514 1.142-.373 1.974.085.491.142 1.368.024 2.146.332-.53.687-1.073.89-1.459.445-.843.563-2.344.704-3.444.121-.947-.654-4.774-.967-6.476a205.08 205.08 0 0 1-.458 4.845z"/></g><g><path fill="#90b928" d="M18.994 47.82c-.063-.184 0-.612-.012-.756-.012-.148-.31-.118-.52.057-.212.175-.564-.322-.564-.482 0-.157.205-.667.148-.925-.06-.257-.664-1.254-1.028-1.91-.362-.658-.937-2.288-1.07-2.656-.133-.368-.485-1.525-.853-2.468-.205-.527-.359-.802-.482-.986a.313.313 0 0 0-.537.03c-.11.218-.27.555-.575 1.119-.588 1.079-.633 3.917-.564 5.065.073 1.148.353 3.143.495 3.752.138.61 1.03 1.619 1.196 1.781.054.055.143.133.237.215h5.15c-.046-.017-.093-.033-.128-.056-.226-.147-.829-1.6-.893-1.78z"/></g><g><path fill="#90b928" d="M34.78 48.335c1.633-.934 2.185-1.98 1.675-4.086-.193-.799-.15-1.624-.141-2.128.13.09.403-.123.488-.21.15-.16.05-.405.006-.483.147.018.268.04.43.12a.444.444 0 0 0-.19-.457c.046-.006.058-.025.034-.094-.04-.099.009-.087.024-.16a.3.3 0 0 0-.123-.319c-.133-.1-.07-.102-.088-.253-.009-.102-.07-.154-.307-.166-.184-.006-.115-.168-.26-.168a.641.641 0 0 0-.262.075c-.123.07-.135.027-.286.04-.187.014-.277.22-.286.334-.163.036-.274.078-.38.208-.265.144-.51.473-.62.798-.281.826-.585 1.968-1.13 2.29-.326.19-.576.323-1.312.344-.503.015-1.175-.202-1.892-.036-.313-.109-2.7-1.802-2.502-.929-.132-.096-.3-.177-.472-.132-.127.235-.012.521.123.65-.133-.02-.298-.06-.395-.014-.084.214.036.425.226.636-.054-.016-.111-.027-.162-.052-.224.431.708 1.363 1.1 1.622-.088-.025-.19-.043-.248-.055-.27.464.829 1.667 1.565 1.733.087.882.643 1.832 1.184 2.213h3.028c.363-.379.73-1.069 1.173-1.32z"/></g><g><path fill="#90b928" d="M68.148 2.789H14.075c-6.233 0-11.286 5.053-11.286 11.286v35.581h8.56a1.683 1.683 0 0 1-.168-.33c-.118-.352.045-.774.093-1.196.045-.421-.117-.657-.283-.705-.163-.045-.187.681-.585.47-.398-.21-.07-.844.024-1.265.094-.422-.093-2.722-.093-3.237 0-.515-.19-1.29-.235-1.853a161.36 161.36 0 0 1-.19-3.379c-.012-.346-.17-.78-.29-1.196a1 1 0 0 0-.027.347c.06.361-.02 1.193-.479 1.636-.46.443-1.015.093-1.275-.54-.259-.635-.4-1.494-.238-1.895.166-.404.142-.961-.009-1.962-.162-1.088.455-2.694.898-3.586.444-.892 1.085-5.295 1.122-6.081.036-.79-.335-3.882-.052-7.254a6.069 6.069 0 0 1 .302-1.462c.436-1.5 1.651-2.633 2.651-3.028 1.197-.467 4.433-.54 5.91-.446 1.477.097 3.002.612 4.056.985 1.058.377 8.538.892 13.064.917 4.527.024 11.633-1.152 13.272-1.152 1.642 0 3.893.283 5.723.118a19.049 19.049 0 0 0 2.624-.398c.83-.196 1.6-.464 2.294-.84.458-.23.919-.447 1.298-.561.224-.07.438-.157.64-.253a.341.341 0 0 0 .168-.404.841.841 0 0 1-.06-.317c.027-.654-.108-1.07.467-1.901.744-1.08 1.383-.395 1.85.087.253.262.528.66.757 1.034a.323.323 0 0 0 .268.154.274.274 0 0 0 .096-.019c.064-.024.335-.072.645-.114.024-.006.064-.015.088-.024.38-.166.856-.485 1.136-.784.386-.41 1.064-1.13 1.217-1.286.154-.154.736-.558.594-.145-.096.283-.542 1.046-.892 1.6.124-.087.235-.175.328-.265.407-.389 1.122-1.073 1.284-1.218.163-.147.766-.521.603-.114-.163.407-1.124 1.79-1.383 2.097-.163.193-.576.51-.865.724a.314.314 0 0 0-.006.5c.096.072.217.153.367.241.504.292 1.3 1.513 1.495 2.164.196.647.684 1.51.962 2.308.274.796 2.145 3.04 2.39 3.448.243.406.65 1.01.828 1.09.175.079.66.374.681.89a.293.293 0 0 1-.003.072c-.163 1.067-1.073 1.706-1.507 1.916-.44.211-.52-.114-.928.016-.407.13-1.139.033-1.299 0-.162-.034-.62-.733-1.335-.651-.714.08-2.634-.097-3.155-.163-.521-.063-2.52-.585-2.911-.389-.313.157-2.236 1.817-3.538 3.324v.001c-.75 1.138-1.458 2.578-1.814 4.236-.78 3.658-3.532 5.693-3.954 6.036-.422.344-1.736.422-1.986.687-.25.265-.172 1.453-.172 2.315 0 .859-.126 1.814-.265 2.188-.141.376-.518 1.015-.518 1.627 0 .609.681 3.258.961 4.057.28.795 1.658 2.094 2.05 2.486.324.324.286.487.156.642h25.238V14.075c0-6.233-5.053-11.286-11.286-11.286z"/></g><g><path fill="#fff" d="M11.837 29.769c-.141 1.1-.259 2.6-.705 3.444-.202.386-.557.928-.889 1.459a7.445 7.445 0 0 0-.024-2.146c-.141-.832.398-1.28.374-1.974-.024-.732-.287-1.537-.181-2.414.084-.702.352-3.514.458-4.845.313 1.702 1.088 5.53.967 6.476zM54.04 49.014c-.392-.392-1.77-1.69-2.05-2.486-.28-.8-.961-3.448-.961-4.057 0-.612.377-1.25.518-1.627.139-.374.265-1.33.265-2.188 0-.862-.078-2.05.172-2.315.25-.265 1.564-.343 1.986-.687.422-.343 3.173-2.378 3.954-6.036.356-1.658 1.064-3.098 1.813-4.236v-.001c1.303-1.507 3.226-3.167 3.539-3.324.392-.196 2.39.326 2.91.389.522.066 2.442.244 3.156.163.714-.082 1.172.617 1.335.65.16.034.892.13 1.299 0 .407-.13.488.196.928-.015.434-.21 1.344-.85 1.507-1.916a.29.29 0 0 0 .003-.073c-.021-.515-.506-.81-.681-.889-.178-.08-.585-.684-.829-1.09-.244-.407-2.115-2.652-2.39-3.448-.277-.798-.765-1.66-.96-2.308-.197-.651-.992-1.872-1.496-2.164a3.777 3.777 0 0 1-.367-.241.314.314 0 0 1 .006-.5c.29-.214.702-.53.865-.724.259-.307 1.22-1.69 1.383-2.097.163-.407-.44-.033-.603.114-.162.145-.877.829-1.284 1.218-.093.09-.205.178-.328.265.35-.554.795-1.317.892-1.6.142-.413-.44-.01-.594.145-.153.156-.831.877-1.217 1.286-.28.299-.757.618-1.136.784-.025.009-.064.018-.088.024-.31.042-.581.09-.645.114a.274.274 0 0 1-.096.019.323.323 0 0 1-.268-.154c-.23-.374-.504-.772-.757-1.034-.467-.482-1.106-1.166-1.85-.087-.575.831-.44 1.247-.467 1.901a.84.84 0 0 0 .06.317.341.341 0 0 1-.168.404 4.819 4.819 0 0 1-.64.253c-.38.114-.84.331-1.298.56-.693.377-1.465.645-2.294.841-.828.193-1.708.317-2.624.398-1.83.165-4.08-.118-5.723-.118-1.64 0-8.745 1.176-13.272 1.152-4.526-.025-12.006-.54-13.064-.917-1.054-.373-2.58-.888-4.056-.985-1.477-.093-4.713-.021-5.91.446-1 .395-2.215 1.528-2.651 3.028a6.07 6.07 0 0 0-.302 1.462c-.283 3.372.088 6.464.052 7.254-.037.786-.679 5.189-1.122 6.081-.443.892-1.06 2.498-.898 3.586.151 1 .175 1.558.01 1.962-.163.401-.022 1.26.237 1.896.26.632.814.982 1.275.54.458-.444.54-1.276.48-1.637a.999.999 0 0 1 .026-.347c.12.416.278.85.29 1.196.024.564.142 2.815.19 3.379.045.563.235 1.338.235 1.853 0 .515.187 2.815.093 3.237-.093.421-.422 1.054-.024 1.265.398.211.422-.515.585-.47.165.048.328.284.283.705-.048.422-.211.844-.093 1.197.033.098.096.213.168.33h3.516c-.094-.083-.183-.16-.237-.216-.166-.162-1.058-1.172-1.196-1.78-.142-.61-.422-2.605-.495-3.753-.07-1.148-.024-3.987.564-5.065.304-.564.464-.901.575-1.119a.313.313 0 0 1 .537-.03c.123.184.277.459.482.986.368.943.72 2.1.853 2.468.133.368.708 1.998 1.07 2.655.364.657.967 1.654 1.028 1.91.057.26-.148.77-.148.926 0 .16.352.657.563.482.211-.175.51-.205.521-.057.012.144-.05.572.012.756.064.18.667 1.633.893 1.78.035.023.082.04.127.056h.286c.017-.308.113-2 .033-3.038-.079-1.055.02-5.711-.148-6.45-.169-.735-.144-1.383.22-1.723l.057-.048c.055-.115.112-.22.154-.305.084-.165.163-.334.244-.503.003-.208.024-.416.045-.606.033-.313.084-.693.28-.967-.214-.383-.515-.705-.391-1.124-.271-.269-.558-.648-.573-.98-.003-.072.066-.334.012-.376a1.123 1.123 0 0 1-.358-.431.25.25 0 0 1 .006-.217c0-.018.009-.06.012-.09 0-.085.003-.17 0-.254-.003-.078-.003-.156-.01-.235l-.002-.018a.3.3 0 0 1 .012-.28c.09-.163.21-.29.37-.398a.174.174 0 0 1 .058-.021c-.003-.018-.01-.033-.012-.051a1.947 1.947 0 0 1-.184-.163c-.226-.235-.308-.425-.223-.73.102-.37.171-.72.437-.894a2.579 2.579 0 0 1 .27-.473c-.092-.483.04-.959.483-1.119a.698.698 0 0 1 .103-.268l.063-.08c.15-.423.482-.733.946-.667.169-.377.548-.576 1.019-.624.156-.344.51-.458.898-.364.12-.377.488-.567.907-.537.268.018.4.042.617-.13.179-.135.383-.307.621-.325.2-.015.492.178.633.118.154-.064.29-.157.45-.214.255-.094.454.039.587.223a.77.77 0 0 1 .518-.263c.187-.024.374.07.537.202.147-.02.292-.033.428-.042.13-.009.295.015.412-.042.118-.057.242-.139.368-.175a.551.551 0 0 1 .398.04c.042.023.175.117.19.117.343-.112.663-.287 1.036-.229.326.05.63.12.962.084.398-.042.955-.132 1.329.076.277-.085.566-.1.856-.021.042.009.08.02.12.03h.021c.115.006.205.024.295.05.097.004.2-.005.323-.032.141-.03.259.018.334.1.094-.007.193.002.293.023.304.067.476.051.777-.018.47-.108.995-.193 1.395.073.477-.217 1.106-.211 1.6-.175.26.02.667.048.99.169.099.018.186.05.28.108l.063-.081a.577.577 0 0 1 .259-.187c.313-.088.618.054.925.1.25.035.362-.127.555-.242.325-.193.611-.157.856.012.337-.298.792-.422 1.133-.214.1-.1.21-.19.337-.28a.778.778 0 0 0 .26-.323.247.247 0 0 1 .138-.208c.286-.132.521-.232.768-.177-.048-.283.193-.57.428-.775a.197.197 0 0 1 .021-.13c.133-.237.362-.44.666-.421.103.003.287.06.383.02.075-.03.124-.162.16-.222.156-.268.358-.425.593-.452.003-.01.01-.015.015-.024l-.002-.006c-.28-.648.084-1.085.316-1.751.232-.666.618-.328 1.006.533.085.187.145.377.19.564.217-.34.588-.558.961-.898.534-.489.712-.021.63.916-.009.084-.02.169-.033.25.106.06.205.127.28.205a.924.924 0 0 1 .995.747c.238.01.461.09.609.296a.794.794 0 0 1 .093.756c.28.292.428.687.2.97.002.019.005.033.005.051l.335.398c.52.64 1.003 1.164 1.386 1.766.385.603.003 1.034.003 1.034s.078.112-.072.316c-.154.208-.447.232-.447.232s-.015.26-.168.374c-.154.114-.232.19-.681.142-.452-.046-.537-.284-.715-.41-.177-.124-.394-.102-.783-.075-.392.027-.826-.112-1.317-.25a3.268 3.268 0 0 1-.301-.097 1.938 1.938 0 0 1-.766.452c-.024.274-.153.515-.449.63-.024.006-.096.003-.144.009 0 .015-.006.045-.004.09.007.163-.087.32-.204.428a.634.634 0 0 1-.193.109c.009.56-.214 1.151-.612 1.528.012.31-.148.66-.262.919-.103.223-.22.485-.386.696.295.428.157.967-.226 1.317.1.147.127.331.027.545-.114.256-.365.461-.642.582.1.364.07.696-.168.973a1.38 1.38 0 0 1-.058.112c.1.24.097.5-.108.735a1.176 1.176 0 0 1-.425.299c0 .024.003.05 0 .075-.03.515-.425.663-.865.648a.88.88 0 0 1-1.197.485.771.771 0 0 1-.753.175c-.015.012-.03.027-.048.036a.874.874 0 0 1-.317.795.874.874 0 0 1-.018.555c-.105.28-.38.618-.373.916.006.431.033.832-.262 1.118-.018.386-.022 3.673.003 4.053.06.998.386 1.676.723 1.929.337.25.404.527.705 1.019.094.153.136.268.138.352.1.094.238.175.388.248h3.4a.461.461 0 0 0-.011-.152c-.109-.466-1.281-1.329-1.393-1.594-.108-.265-.702-.97-.623-3.11.078-2.142.813-3.676 1.079-4.58.141-.483.316-1.1.466-1.625.091-.319.546-.295.61.028.066.331.096.62.096.75 0 .268.186.22.392 1.019.201.795.25 2.266.31 2.688.063.421.211 4.135.103 4.493-.112.362.437.534.575.25.142-.28.519-.078.455.236-.063.313-.298.813-.048 1.063.232.233.665.497 1.028.534h2.805c.13-.155.168-.318-.156-.642z"/></g><g><path fill="#90b928" d="M77.243 51.173H2.789v12.64a5.112 5.112 0 0 0 5.112 5.113h66.42a5.112 5.112 0 0 0 5.113-5.112V51.173z"/></g><g><path fill="#fff" d="M23.442 48.344c-.238-.069-.358-.25-.43-.93-.073-.685-.254-4.855-.546-5.81-.12-.399-.28-.721-.392-1.016-.05.13-.349.93-.292 2.046.064 1.217.052 5.596.214 5.87.163.274.356.732.48 1.045.015.038.018.072.026.107h1.617c-.035-.098-.062-.704-.086-.823-.08-.404-.355-.42-.59-.489z"/></g><g><path fill="#fff" d="M41.729 48.263c-.241-.274-.1-1.07-.03-1.573.066-.5.075-5.12.066-5.6-.009-.463-.18-.87-.166-1.247a.506.506 0 0 1-.069.04c.057.328.012.701-.024.96-.075.51-.22 1.324-.696 1.682-.018.42-.024 3.75 0 4.168.06.997.386 1.673.723 1.926.219.16.324.683.452 1.037h.323c-.026-.294-.072-.987-.16-1.043-.1-.064-.178-.079-.419-.35z"/></g><g><path fill="#fff" d="M39.51 47.275c.055-.401.07-4.478.07-5.184-.174-.244-.168-.503-.054-.762-.464-.555-.364-1.393-.66-2.025-.081-.175-.175-.368-.26-.57a.749.749 0 0 1-.493-.12c-.17.147-.377.253-.594.244-.217-.01-.37-.082-.482-.2a.77.77 0 0 1-.684-.05l-.019.003c-.313.21-.702.262-1.003.08-.033.007-.066.01-.1.016-.421.28-1.06.389-1.494.196-.18.16-.413.271-.663.21a.552.552 0 0 1-.404-.322c-.262.067-.527-.015-.771-.156a.875.875 0 0 1-.32-.012.392.392 0 0 1-.117-.042c-.232.069-.476.096-.672.093-.455-.015-.992-.145-1.302-.47-.202.141-.431.232-.651.087-.154-.1-.23-.262-.292-.434-.268.19-.6.266-.865-.015-.01-.01-.018-.021-.028-.03-.238.277-.69.256-.982.063-.108.214-.259.41-.434.57a2.45 2.45 0 0 1-.732.464c-.15.06-.34.124-.455.247a.999.999 0 0 1-.13.23c-.048.105-.093.213-.15.312-.079.142-.16.278-.302.365-.105.063-.223.085-.217.214.01.274.055.551.019.826-.028.226-.06.497-.136.747.175.91.382 4.74.473 5.012.123.367.153.771.352.934.2.163.32.437.383.603.053.143.368 1.007.436 1.257h4.802c-.541-.381-1.097-1.331-1.184-2.213-.736-.066-1.836-1.269-1.565-1.733.058.012.16.03.248.055-.392-.26-1.324-1.19-1.1-1.622.05.025.108.037.162.052-.19-.211-.31-.422-.226-.636.097-.046.262-.006.395.015-.135-.13-.25-.416-.123-.651.171-.045.34.036.472.132-.198-.873 2.189.82 2.502.929.717-.166 1.39.051 1.892.036.736-.021.986-.154 1.311-.344.546-.322.85-1.464 1.13-2.29.112-.325.356-.654.621-.798.106-.13.217-.172.38-.208.009-.115.1-.32.286-.335.15-.012.163.03.286-.04a.641.641 0 0 1 .263-.074c.144 0 .075.162.259.168.238.012.298.064.307.166.018.15-.045.154.088.253a.3.3 0 0 1 .123.32c-.015.072-.063.06-.024.16.024.068.012.087-.033.093.21.15.214.373.19.458a1.18 1.18 0 0 0-.431-.12c.045.077.145.322-.006.481-.085.088-.359.302-.488.211-.01.504-.052 1.33.141 2.128.51 2.106-.042 3.152-1.675 4.086-.444.252-.81.942-1.173 1.321h6.32c-.086-.14-.172-.57-.386-.811-.241-.271-.1-1.07-.03-1.57z"/></g><g><g><path fill="#fff" d="M9.17 64.107l-.158.271c.752.026 1.207.386 1.207 1.049 0 .613-.48 1.048-1.636 1.048-.41 0-.631-.037-.827-.076v-.82c.164.05.347.088.682.088.252 0 .562-.07.562-.34 0-.248-.373-.392-1.024-.392v-.487l.209-.398c-.928-.158-1.85-.619-2.627-1.402l1.276-1.578c.7.764 1.528 1.099 2.166 1.099.751 0 1.036-.342 1.036-.752 0-.505-.323-.726-1.37-1.074-1.403-.48-2.792-1.142-2.792-2.942 0-1.529 1.332-2.698 3.012-2.722 1.2-.02 2.28.435 3.196 1.2l-1.232 1.604c-.777-.626-1.37-.885-1.894-.885-.518 0-.834.272-.84.714-.007.41.328.625 1.338 1.017 1.611.618 2.842 1.042 2.842 2.835 0 2.059-1.699 2.867-3.126 2.943z"/></g><g><path fill="#fff" d="M19.067 60.653c-.31.922-1.005 1.452-1.902 1.452-.94 0-1.572-.568-1.856-1.452zm-2.148-5.974c-1.275 0-2.26.41-2.867.732l1.049 1.756a4.152 4.152 0 0 1 1.938-.493c1.168 0 1.983.834 2.173 2.172H13.13c-.025.121-.05.449-.05.708 0 2.747 1.68 4.554 4.174 4.554 2.425 0 4.187-1.92 4.187-4.674 0-2.873-1.831-4.755-4.522-4.755z"/></g><g><path fill="#fff" d="M25.525 60.527l-.67.808v2.652h-2.153v-9.189h2.154v3.524h.025l2.659-3.524h2.734l-3.302 3.986 3.429 5.203h-2.665l-2.173-3.46z"/></g><g><path fill="#fff" d="M34.215 62.105c-.941 0-1.573-.568-1.857-1.452h3.758c-.31.922-1.004 1.452-1.901 1.452zm4.275-2.671c0-2.873-1.83-4.755-4.522-4.755-1.275 0-2.26.41-2.867.732l1.049 1.756a4.153 4.153 0 0 1 1.938-.493c1.169 0 1.983.834 2.173 2.172h-6.082c-.025.121-.05.449-.05.708 0 2.747 1.68 4.554 4.174 4.554 2.425 0 4.187-1.92 4.187-4.674z"/></g><g><path fill="#fff" d="M41.88 56.712h1.035c.96 0 1.46.518 1.46 1.206 0 .752-.57 1.213-1.498 1.213h-.997zm5.185 7.275l-2.154-3.233v-.032c1.067-.442 1.705-1.358 1.705-2.753 0-1.825-1.017-3.17-3.284-3.17h-3.58v9.188h2.128v-2.962h.757l1.883 2.962z"/></g><g><path fill="#fff" d="M58.612 54.798l-3.019 5.192v3.997h-2.191V59.99l-3-5.192h2.475l1.61 3.044h.039l1.585-3.044z"/></g><g><path fill="#fff" d="M59.375 54.798h6v1.933h-3.878v1.762h3.063v1.901h-3.063v1.668h4.149v1.925h-6.271z"/></g><g><path fill="#fff" d="M76.344 54.798v9.19h-2.147v-5.066h-.025l-1.863 3.38h-1.383l-1.863-3.374h-.026v5.06H66.89v-9.19h2.179l2.539 4.87h.037l2.52-4.87z"/></g></g></g></g></svg>